<svg width="64" height="57" viewBox="0 0 64 57" fill="none" xmlns="http://www.w3.org/2000/svg">
<path d="M0.75 5.99999C0.75 3.1005 3.1005 0.75 6 0.75H43.3269C46.2264 0.75 48.5769 3.10051 48.5769 6V34.5577C48.5769 37.4572 46.2264 39.8077 43.3269 39.8077H19.4188C17.7034 39.8077 16.0128 40.2182 14.4884 41.005L2.57331 47.1548C1.74134 47.5842 0.75 46.9802 0.75 46.044V40.5577V5.99999Z" fill="white" stroke="#263238" stroke-width="1.5"/>
<path d="M51.7263 13.1538H56.4808C59.7945 13.1538 62.4808 15.8401 62.4808 19.1538V48.6205V53.4776C62.4808 55.03 60.7891 55.9905 59.4559 55.195L50.8052 50.0331C49.2558 49.1086 47.4853 48.6205 45.681 48.6205H27.2455C24.306 48.6205 21.9231 46.2375 21.9231 43.298V43.298" stroke="#263238" stroke-width="1.5"/>
<rect x="10.2115" y="12.4038" width="30" height="3.69231" rx="1.84615" fill="#38BFF2" stroke="#263238" stroke-width="1.5"/>
<rect x="10.2115" y="20.0769" width="23.4231" height="3.69231" rx="1.84615" fill="#38BFF2" stroke="#263238" stroke-width="1.5"/>
</svg>
