<svg width="72" height="72" viewBox="0 0 72 72" fill="none" xmlns="http://www.w3.org/2000/svg">
<path d="M63.5553 11.1207V63.2324C63.5553 64.6005 62.4478 65.708 61.0797 65.708H10.9746C9.60649 65.708 8.49898 64.6005 8.49898 63.2324V59.988C7.1635 59.988 5.95176 59.4408 5.07877 58.5678C4.19282 57.6949 3.65857 56.4766 3.65857 55.1411H8.49898V11.1207C8.49898 9.75265 9.60649 8.64514 10.9746 8.64514H61.0797C62.4479 8.64514 63.5553 9.75265 63.5553 11.1207Z" fill="white"/>
<path d="M8.68927 59.4095C6.12819 59.4095 4.87813 56.3606 4.57324 54.8361L54.4229 54.3788C55.3643 58.1443 57.4943 59.2634 58.851 59.4095H59.4536C59.28 59.4312 59.0761 59.4337 58.851 59.4095H8.68927Z" fill="#38BFF2"/>
<path d="M19.1821 27.8533C17.0228 27.8533 15.2662 29.6061 15.2662 31.7602C15.2662 33.915 17.0228 35.6679 19.1821 35.6679C21.3364 35.6679 23.089 33.915 23.089 31.7602C23.089 29.6061 21.3364 27.8533 19.1821 27.8533Z" fill="#38BFF2"/>
<path d="M19.1821 27.8533C17.0228 27.8533 15.2662 29.6061 15.2662 31.7602C15.2662 33.915 17.0228 35.6679 19.1821 35.6679C21.3364 35.6679 23.089 33.915 23.089 31.7602C23.089 29.6061 21.3364 27.8533 19.1821 27.8533ZM19.1821 34.3648C17.7414 34.3648 16.5692 33.1962 16.5692 31.7602C16.5692 30.3243 17.7414 29.1561 19.1821 29.1561C20.618 29.1561 21.7862 30.3243 21.7862 31.7602C21.7862 33.1962 20.618 34.3648 19.1821 34.3648Z" fill="#1A2E35"/>
<path d="M30.753 27.8533C28.5937 27.8533 26.8372 29.6061 26.8372 31.7602C26.8372 33.915 28.5937 35.6679 30.753 35.6679C32.9076 35.6679 34.6602 33.915 34.6602 31.7602C34.6604 29.6061 32.9076 27.8533 30.753 27.8533Z" fill="#38BFF2"/>
<path d="M30.753 27.8533C28.5937 27.8533 26.8372 29.6061 26.8372 31.7602C26.8372 33.915 28.5937 35.6679 30.753 35.6679C32.9076 35.6679 34.6602 33.915 34.6602 31.7602C34.6604 29.6061 32.9076 27.8533 30.753 27.8533ZM30.753 34.3648C29.3123 34.3648 28.1402 33.1962 28.1402 31.7602C28.1402 30.3243 29.3123 29.1561 30.753 29.1561C32.189 29.1561 33.3574 30.3243 33.3574 31.7602C33.3574 33.1962 32.189 34.3648 30.753 34.3648Z" fill="#1A2E35"/>
<path d="M42.3247 27.9315C40.1654 27.9315 38.4088 29.6843 38.4088 31.8385C38.4088 33.9933 40.1654 35.7461 42.3247 35.7461C44.4792 35.7461 46.2319 33.9933 46.2319 31.8385C46.2319 29.6843 44.4792 27.9315 42.3247 27.9315Z" fill="#38BFF2"/>
<path d="M42.3247 27.8533C40.1654 27.8533 38.4088 29.6061 38.4088 31.7602C38.4088 33.915 40.1654 35.6679 42.3247 35.6679C44.4792 35.6679 46.2319 33.915 46.2319 31.7602C46.2319 29.6061 44.4792 27.8533 42.3247 27.8533ZM42.3247 34.3648C40.884 34.3648 39.7118 33.1962 39.7118 31.7602C39.7118 30.3243 40.884 29.1561 42.3247 29.1561C43.7606 29.1561 44.929 30.3243 44.929 31.7602C44.9289 33.1962 43.7606 34.3648 42.3247 34.3648Z" fill="#1A2E35"/>
<path d="M53.8958 35.6679C56.0504 35.6679 57.8031 33.915 57.8031 31.7602C57.8031 29.6059 56.0503 27.8533 53.8958 27.8533C51.7366 27.8533 49.98 29.6061 49.98 31.7602C49.98 33.915 51.7366 35.6679 53.8958 35.6679Z" fill="#38BFF2"/>
<path d="M53.8958 35.6679C56.0504 35.6679 57.8031 33.915 57.8031 31.7602C57.8031 29.6059 56.0503 27.8533 53.8958 27.8533C51.7366 27.8533 49.98 29.6061 49.98 31.7602C49.98 33.915 51.7366 35.6679 53.8958 35.6679ZM53.8958 29.1563C55.3318 29.1563 56.5002 30.3244 56.5002 31.7604C56.5002 33.1963 55.3318 34.365 53.8958 34.365C52.4552 34.365 51.283 33.1963 51.283 31.7604C51.283 30.3243 52.4552 29.1563 53.8958 29.1563Z" fill="#1A2E35"/>
<path d="M19.1821 38.8293C17.0228 38.8293 15.2662 40.5822 15.2662 42.737C15.2662 44.8913 17.0228 46.6439 19.1821 46.6439C21.3364 46.6439 23.089 44.8911 23.089 42.737C23.089 40.5822 21.3364 38.8293 19.1821 38.8293Z" fill="#38BFF2"/>
<path d="M19.1821 38.8293C17.0228 38.8293 15.2662 40.5822 15.2662 42.737C15.2662 44.8913 17.0228 46.6439 19.1821 46.6439C21.3364 46.6439 23.089 44.8911 23.089 42.737C23.089 40.5822 21.3364 38.8293 19.1821 38.8293ZM19.1821 45.3409C17.7414 45.3409 16.5692 44.1728 16.5692 42.7368C16.5692 41.3009 17.7414 40.1322 19.1821 40.1322C20.618 40.1322 21.7862 41.3009 21.7862 42.7368C21.7862 44.1728 20.618 45.3409 19.1821 45.3409Z" fill="#1A2E35"/>
<path d="M30.753 38.8293C28.5937 38.8293 26.8372 40.5822 26.8372 42.737C26.8372 44.8913 28.5937 46.6439 30.753 46.6439C32.9076 46.6439 34.6602 44.8911 34.6602 42.737C34.6604 40.5822 32.9076 38.8293 30.753 38.8293Z" fill="#38BFF2"/>
<path d="M30.753 38.8293C28.5937 38.8293 26.8372 40.5822 26.8372 42.737C26.8372 44.8913 28.5937 46.6439 30.753 46.6439C32.9076 46.6439 34.6602 44.8911 34.6602 42.737C34.6604 40.5822 32.9076 38.8293 30.753 38.8293ZM30.753 45.3409C29.3123 45.3409 28.1402 44.1728 28.1402 42.7368C28.1402 41.3009 29.3123 40.1322 30.753 40.1322C32.189 40.1322 33.3574 41.3009 33.3574 42.7368C33.3574 44.1728 32.189 45.3409 30.753 45.3409Z" fill="#1A2E35"/>
<path d="M42.3245 38.8293C40.1653 38.8293 38.4087 40.5822 38.4087 42.737C38.4087 44.8913 40.1653 46.6439 42.3245 46.6439C44.4791 46.6439 46.2318 44.8911 46.2318 42.737C46.2318 40.5822 44.4791 38.8293 42.3245 38.8293ZM42.3245 45.3409C40.8839 45.3409 39.7117 44.1728 39.7117 42.7368C39.7117 41.3009 40.8839 40.1322 42.3245 40.1322C43.7605 40.1322 44.9289 41.3009 44.9289 42.7368C44.9289 44.1728 43.7605 45.3409 42.3245 45.3409Z" fill="#1A2E35"/>
<path d="M57.8031 42.737C57.8031 40.5822 56.0503 38.8293 53.8958 38.8293C51.7366 38.8293 49.98 40.5822 49.98 42.737C49.98 44.8913 51.7366 46.6439 53.8958 46.6439C56.0504 46.6439 57.8031 44.8911 57.8031 42.737ZM53.8958 45.3409C52.4552 45.3409 51.283 44.1728 51.283 42.7368C51.283 41.3009 52.4552 40.1322 53.8958 40.1322C55.3318 40.1322 56.5002 41.3009 56.5002 42.7368C56.5002 44.1728 55.3318 45.3409 53.8958 45.3409Z" fill="#1A2E35"/>
<path d="M61.5863 7.43102H56.3577V3.90644C56.3577 3.54637 56.066 3.255 55.7062 3.255C55.3464 3.255 55.0548 3.54637 55.0548 3.90644V7.43102H16.4588V3.90644C16.4588 3.54637 16.1672 3.255 15.8074 3.255C15.4476 3.255 15.156 3.54637 15.156 3.90644V7.43102H11.4828C9.75873 7.43102 8.35623 8.83381 8.35623 10.5581C8.35595 16.2883 8.35428 53.6848 8.35428 53.9291H4.16377C3.80398 53.9291 3.51233 54.2204 3.51233 54.5805C3.51233 57.4732 5.69642 59.7191 8.35414 60.0329V62.6699C8.35414 64.394 9.75692 65.7969 11.4812 65.7969H61.5864C63.3105 65.7969 64.7135 64.3941 64.7135 62.6699C64.7135 51.1802 64.7135 21.4647 64.7135 10.5581C64.7133 8.83381 63.3105 7.43102 61.5863 7.43102ZM11.4827 8.73403H15.1558V13.9039C15.1558 14.2639 15.4475 14.5553 15.8073 14.5553C16.167 14.5553 16.4587 14.2639 16.4587 13.9039V8.73403H55.0546V13.9039C55.0546 14.2639 55.3463 14.5553 55.7061 14.5553C56.0659 14.5553 56.3575 14.2639 56.3575 13.9039V8.73403H61.5861C62.5919 8.73403 63.4102 9.55227 63.4102 10.5581V19.0731H9.65896V10.5579C9.65896 9.55213 10.4772 8.73403 11.4827 8.73403ZM9.65715 20.3766H63.4104V54.5786C63.4104 56.891 61.5325 58.7723 59.2238 58.7735C59.2217 58.7735 59.2202 58.7724 59.2181 58.7724C56.9032 58.7724 55.0261 56.8963 55.0261 54.5804C55.0261 54.2203 54.7344 53.9289 54.3746 53.9289H9.65715V20.3766ZM4.86481 55.2319H53.7612C53.9244 56.6194 54.6053 57.8707 55.6661 58.7724H9.00752C6.89798 58.7724 5.16997 57.2184 4.86481 55.2319ZM63.4103 62.6699C63.4103 63.6757 62.5921 64.4939 61.5863 64.4939H11.4812C10.4754 64.4939 9.65715 63.6758 9.65715 62.6699V60.0767H59.2213C60.8996 60.0767 62.4023 59.3172 63.4104 58.1258V62.6699H63.4103Z" fill="#1A2E35"/>
</svg>
