<svg width="60" height="60" viewBox="0 0 60 60" fill="none" xmlns="http://www.w3.org/2000/svg">
<path d="M39.2664 4.02055V55.9793C39.2664 57.6874 37.8817 59.0721 36.1735 59.0721H8.24778C6.53965 59.0721 5.15497 57.6874 5.15497 55.9793V4.02055C5.15497 2.31242 6.53965 0.927734 8.24778 0.927734H36.1735C37.8817 0.927852 39.2664 2.31254 39.2664 4.02055Z" fill="white"/>
<path d="M30.8145 0.927979V3.39724C30.8145 4.76376 29.7068 5.87142 28.3404 5.87142H16.0806C14.714 5.87142 13.6064 4.76364 13.6064 3.39724V0.927979H30.8145Z" fill="#38BFF2"/>
<path d="M54.8452 20.7651V40.4723C54.8452 41.8388 53.7374 42.9464 52.371 42.9464H22.2101V18.2908H52.3709C53.7374 18.2908 54.8452 19.3985 54.8452 20.7651Z" fill="#38BFF2"/>
<path d="M22.2101 23.3477H54.8452V29.4783H22.2101V23.3477Z" fill="#D7E9FF"/>
<path d="M14.0558 54.7424C13.7142 54.7424 13.4373 55.0191 13.4373 55.3609C13.4373 55.7029 13.7142 55.9795 14.0558 55.9795H30.3652C30.7068 55.9795 30.9837 55.7028 30.9837 55.3609C30.9837 55.019 30.7068 54.7424 30.3652 54.7424H14.0558Z" fill="#1A2E35"/>
<path d="M26.6969 4.01828H27.8014C28.143 4.01828 28.42 3.7416 28.42 3.39977C28.42 3.05793 28.143 2.78125 27.8014 2.78125H26.6969C26.3553 2.78125 26.0784 3.05793 26.0784 3.39977C26.0784 3.7416 26.3553 4.01828 26.6969 4.01828Z" fill="#1A2E35"/>
<path d="M16.6196 4.01828H23.7982C24.1398 4.01828 24.4167 3.7416 24.4167 3.39977C24.4167 3.05793 24.1398 2.78125 23.7982 2.78125H16.6196C16.278 2.78125 16.001 3.05793 16.001 3.39977C16.001 3.7416 16.278 4.01828 16.6196 4.01828Z" fill="#1A2E35"/>
<path d="M52.3707 17.6724H39.8849V4.02065C39.8849 1.97409 38.2201 0.309326 36.1735 0.309326C30.0916 0.309326 14.3337 0.309326 8.24789 0.309326C6.20133 0.309326 4.53656 1.97409 4.53656 4.02065V55.9794C4.53656 58.0259 6.20133 59.6907 8.24789 59.6907H36.1734C38.22 59.6907 39.8848 58.0259 39.8848 55.9794V43.5649H52.3706C54.0759 43.5649 55.4634 42.1774 55.4634 40.4721C55.4634 33.2804 55.4634 27.8476 55.4634 20.7652C55.4635 19.0599 54.0759 17.6724 52.3707 17.6724ZM54.2264 20.7652V22.7291H22.8286V18.9096H52.3707C53.394 18.9096 54.2264 19.7419 54.2264 20.7652ZM54.2264 28.8596H22.8286V23.9661H54.2264V28.8596ZM30.196 1.54647V3.39733C30.196 4.42062 29.3637 5.253 28.3404 5.253H16.0807C15.0574 5.253 14.225 4.42062 14.225 3.39733V1.54647H30.196ZM38.6477 55.9795C38.6477 57.344 37.5377 58.4537 36.1735 58.4537H8.24777C6.88347 58.4537 5.77359 57.344 5.77359 55.9795V4.02065C5.77359 2.65612 6.88359 1.54647 8.24777 1.54647H12.9878V3.39733C12.9878 5.10265 14.3753 6.49015 16.0806 6.49015H28.3403C30.0456 6.49015 31.4331 5.10265 31.4331 3.39733V1.54647H36.1734C37.5377 1.54647 38.6476 2.65612 38.6476 4.02065V17.6724H22.8285V14.8823C22.8285 14.5403 22.5516 14.2638 22.21 14.2638C21.8684 14.2638 21.5914 14.5405 21.5914 14.8823V46.3483C21.5914 46.6903 21.8684 46.9668 22.21 46.9668C22.5516 46.9668 22.8285 46.6901 22.8285 46.3483V43.5648H38.6476V55.9795H38.6477ZM52.3707 42.3277H22.8286V34.7673H43.2787C43.6203 34.7673 43.8973 34.4906 43.8973 34.1487C43.8973 33.8068 43.6203 33.5302 43.2787 33.5302H22.8286V30.0967H54.2264V40.4721C54.2264 41.4953 53.394 42.3277 52.3707 42.3277Z" fill="#1A2E35"/>
<path d="M43.2788 37.657H41.5068C41.1652 37.657 40.8882 37.9337 40.8882 38.2755C40.8882 38.6175 41.1652 38.894 41.5068 38.894H43.2788C43.6204 38.894 43.8973 38.6173 43.8973 38.2755C43.8973 37.9337 43.6204 37.657 43.2788 37.657Z" fill="#1A2E35"/>
<path d="M38.2134 37.657H36.4415C36.0999 37.657 35.8229 37.9337 35.8229 38.2755C35.8229 38.6175 36.0999 38.894 36.4415 38.894H38.2134C38.555 38.894 38.832 38.6173 38.832 38.2755C38.832 37.9337 38.555 37.657 38.2134 37.657Z" fill="#1A2E35"/>
<path d="M33.148 37.657H31.376C31.0344 37.657 30.7575 37.9337 30.7575 38.2755C30.7575 38.6175 31.0344 38.894 31.376 38.894H33.148C33.4896 38.894 33.7665 38.6173 33.7665 38.2755C33.7666 37.9337 33.4896 37.657 33.148 37.657Z" fill="#1A2E35"/>
<path d="M28.0827 37.657H26.3107C25.9691 37.657 25.6922 37.9337 25.6922 38.2755C25.6922 38.6175 25.9691 38.894 26.3107 38.894H28.0827C28.4243 38.894 28.7012 38.6173 28.7012 38.2755C28.7013 37.9337 28.4243 37.657 28.0827 37.657Z" fill="#1A2E35"/>
</svg>
