<svg width="58" height="58" viewBox="0 0 58 58" fill="none" xmlns="http://www.w3.org/2000/svg">
<g clip-path="url(#clip0_0_481)">
<path d="M57.103 11.7017V54.4721C57.103 55.9311 55.9251 57.1031 54.4662 57.1031H3.5338C2.07486 57.1031 0.896957 55.9311 0.896957 54.4721V11.7017H57.103Z" fill="white"/>
<path d="M57.103 3.53382V11.7016H0.896957V3.53382C0.896957 2.07487 2.07486 0.896973 3.5338 0.896973H54.4662C55.9251 0.896973 57.103 2.07487 57.103 3.53382Z" fill="#38BFF2"/>
<path d="M8.1175 6.29652C8.1175 7.05765 7.49978 7.67549 6.73853 7.67549C5.97728 7.67549 5.35956 7.05777 5.35956 6.29652C5.35956 5.53527 5.97728 4.9231 6.73853 4.9231C7.49978 4.9231 8.1175 5.53538 8.1175 6.29652Z" fill="#D7E9FF"/>
<path d="M13.9482 6.29652C13.9482 7.05765 13.3305 7.67549 12.5692 7.67549C11.808 7.67549 11.1903 7.05777 11.1903 6.29652C11.1903 5.53527 11.808 4.9231 12.5692 4.9231C13.3305 4.9231 13.9482 5.53538 13.9482 6.29652Z" fill="#D7E9FF"/>
<path d="M19.779 6.29652C19.779 7.05765 19.1613 7.67549 18.4 7.67549C17.6388 7.67549 17.0211 7.05777 17.0211 6.29652C17.0211 5.53527 17.6388 4.9231 18.4 4.9231C19.1613 4.9231 19.779 5.53538 19.779 6.29652Z" fill="#D7E9FF"/>
<path d="M52.6403 6.29561C52.6403 7.0572 52.0178 7.67232 51.2562 7.67232H36.6618C35.9002 7.67232 35.2851 7.0572 35.2851 6.29561C35.2851 5.53402 35.9002 4.92627 36.6618 4.92627H51.2564C52.0178 4.92627 52.6403 5.53402 52.6403 6.29561Z" fill="#D7E9FF"/>
<path d="M54.4661 0.29895H3.53392C1.75008 0.29895 0.29895 1.74997 0.29895 3.53392V54.4722C0.29895 56.2525 1.74997 57.7011 3.53392 57.7011H54.4661C56.2499 57.7011 57.7011 56.2526 57.7011 54.4722C57.7011 48.0722 57.7011 11.1231 57.7011 3.53392C57.7011 1.74997 56.25 0.29895 54.4661 0.29895ZM1.49486 3.53392C1.49486 2.40961 2.40983 1.49486 3.53392 1.49486H54.4661C55.5902 1.49486 56.5051 2.40961 56.5051 3.53392V11.1036H1.49486V3.53392ZM56.5051 54.4722C56.5051 55.593 55.5902 56.5051 54.4661 56.5051H3.53392C2.40983 56.5051 1.49486 55.593 1.49486 54.4722V12.2995H56.5051V54.4722Z" fill="#1A2E35"/>
<path d="M8.09553 35.0121C9.25575 35.0121 10.1994 35.9455 10.1994 37.0926V42.3091C10.1994 44.1283 11.6691 45.6085 13.4753 45.6085C13.8058 45.6085 14.0732 45.3409 14.0732 45.0106C14.0732 44.6804 13.8057 44.4127 13.4753 44.4127C12.3284 44.4127 11.3953 43.4691 11.3953 42.3091V37.0926C11.3953 35.9776 10.8313 34.9908 9.97169 34.3987C10.8178 33.7978 11.372 32.8139 11.372 31.7127V26.4958C11.372 25.3358 12.3051 24.3922 13.4525 24.3922C13.783 24.3922 14.0504 24.1245 14.0504 23.7943C14.0504 23.4641 13.7829 23.1964 13.4525 23.1964C11.6459 23.1964 10.176 24.6767 10.176 26.4958V31.7127C10.176 32.8542 9.23831 33.7978 8.08624 33.8163C7.30052 33.8288 7.31128 35.0121 8.09553 35.0121Z" fill="#1A2E35"/>
<path d="M46.6047 37.0926V42.3091C46.6047 43.4691 45.6716 44.4127 44.5247 44.4127C44.1942 44.4127 43.9268 44.6804 43.9268 45.0106C43.9268 45.3408 44.1943 45.6085 44.5247 45.6085C46.3308 45.6085 47.8006 44.1283 47.8006 42.3091V37.0926C47.8006 35.9455 48.7442 35.0121 49.9045 35.0121C50.6896 35.0121 50.6985 33.8288 49.9138 33.8162C48.7617 33.7978 47.8239 32.8542 47.8239 31.7125V26.4957C47.8239 24.6765 46.3542 23.1963 44.5475 23.1963C44.217 23.1963 43.9496 23.464 43.9496 23.7942C43.9496 24.1244 44.2171 24.3921 44.5475 24.3921C45.6949 24.3921 46.628 25.3357 46.628 26.4957V31.7125C46.628 32.8139 47.1822 33.7977 48.0283 34.3986C47.1688 34.9908 46.6047 35.9776 46.6047 37.0926Z" fill="#1A2E35"/>
<path d="M24.9855 44.7976C25.2935 44.9172 25.6395 44.7634 25.7587 44.4554L33.3567 24.7807C33.4758 24.4727 33.3222 24.1264 33.0144 24.0075C32.7079 23.8887 32.3605 24.042 32.2413 24.3498L24.6433 44.0244C24.5242 44.3325 24.6777 44.6788 24.9855 44.7976Z" fill="#1A2E35"/>
<path d="M40.9985 34.4116L34.1054 39.0701C33.8315 39.2552 33.7596 39.6269 33.9447 39.9005C34.1302 40.1759 34.5034 40.2446 34.7745 40.0611L42.3994 34.908C42.752 34.6697 42.7481 34.1538 42.4005 33.9177L34.7757 28.7447C34.5036 28.5596 34.131 28.6305 33.9453 28.9038C33.7596 29.1771 33.8309 29.5491 34.1041 29.7344L40.9985 34.4116Z" fill="#1A2E35"/>
<path d="M15.5984 34.9064L23.1514 40.0595C23.423 40.2455 23.7963 40.1753 23.9823 39.9024C24.1685 39.6297 24.098 39.2577 23.8252 39.0715L16.995 34.4114L23.8263 29.7327C24.0984 29.5461 24.1679 29.1739 23.9816 28.9014C23.7948 28.629 23.424 28.5596 23.1501 28.7458L15.5971 33.9188C15.4342 34.0304 15.3372 34.2155 15.3372 34.4128C15.3372 34.6101 15.4355 34.7951 15.5984 34.9064Z" fill="#1A2E35"/>
<path d="M6.73854 4.32507C5.64889 4.32507 4.76201 5.20946 4.76201 6.29639C4.76201 7.38661 5.649 8.27326 6.73854 8.27326C7.82876 8.27326 8.71575 7.38661 8.71575 6.29639C8.71564 5.20946 7.82865 4.32507 6.73854 4.32507ZM6.73854 7.07747C6.30818 7.07747 5.95781 6.72709 5.95781 6.29651C5.95781 5.86876 6.30818 5.5211 6.73854 5.5211C7.16946 5.5211 7.51984 5.86887 7.51984 6.29651C7.51973 6.72709 7.16946 7.07747 6.73854 7.07747Z" fill="#1A2E35"/>
<path d="M12.5696 4.32507C11.4794 4.32507 10.5924 5.20946 10.5924 6.29639C10.5924 7.38661 11.4794 8.27326 12.5696 8.27326C13.6592 8.27326 14.5461 7.38661 14.5461 6.29639C14.5461 5.20946 13.6591 4.32507 12.5696 4.32507ZM12.5696 7.07747C12.1387 7.07747 11.7883 6.72709 11.7883 6.29651C11.7883 5.86876 12.1387 5.5211 12.5696 5.5211C12.9999 5.5211 13.3503 5.86887 13.3503 6.29651C13.3503 6.72709 12.9999 7.07747 12.5696 7.07747Z" fill="#1A2E35"/>
<path d="M18.4 4.32507C17.3098 4.32507 16.4228 5.20946 16.4228 6.29639C16.4228 7.38661 17.3098 8.27326 18.4 8.27326C19.4897 8.27326 20.3766 7.38661 20.3766 6.29639C20.3766 5.20946 19.4896 4.32507 18.4 4.32507ZM18.4 7.07747C17.9691 7.07747 17.6187 6.72709 17.6187 6.29651C17.6187 5.86876 17.9691 5.5211 18.4 5.5211C18.8304 5.5211 19.1808 5.86887 19.1808 6.29651C19.1808 6.72709 18.8304 7.07747 18.4 7.07747Z" fill="#1A2E35"/>
<path d="M51.2563 4.32837H36.6617C35.5727 4.32837 34.6868 5.21094 34.6868 6.29561C34.6868 7.38458 35.5727 8.27044 36.6617 8.27044H51.2563C52.3487 8.27044 53.2381 7.38458 53.2381 6.29561C53.2381 5.21094 52.3487 4.32837 51.2563 4.32837ZM51.2563 7.07453H36.6617C36.2319 7.07453 35.8827 6.72506 35.8827 6.29561C35.8827 5.86322 36.225 5.52428 36.6617 5.52428H51.2563C51.6896 5.52428 52.0422 5.87024 52.0422 6.29561C52.0422 6.72506 51.6896 7.07453 51.2563 7.07453Z" fill="#1A2E35"/>
</g>
<defs>
<clipPath id="clip0_0_481">
<rect width="58" height="58" fill="white"/>
</clipPath>
</defs>
</svg>
